<?xml version="1.0" standalone="no"?>
<!DOCTYPE svg PUBLIC "-//W3C//DTD SVG 20010904//EN"
 "http://www.w3.org/TR/2001/REC-SVG-20010904/DTD/svg10.dtd">
<svg version="1.0" xmlns="http://www.w3.org/2000/svg"
 width="360.000000pt" height="360.000000pt" viewBox="0 0 360.000000 360.000000"
 preserveAspectRatio="xMidYMid meet">

<g transform="translate(0.000000,360.000000) scale(0.100000,-0.100000)"
fill="#000000" stroke="none">
<path d="M1665 2899 c-436 -55 -814 -388 -930 -819 -150 -563 127 -1142 652
-1360 50 -21 81 -28 99 -24 27 7 45 39 39 70 -2 11 -4 53 -4 95 l-1 76 -79 -5
c-151 -9 -233 41 -301 184 -32 66 -52 93 -100 135 -50 43 -58 55 -48 67 18 21
91 10 138 -23 22 -15 53 -48 69 -74 60 -92 122 -132 208 -130 81 1 114 19 128
67 7 23 22 57 33 76 l21 35 -37 6 c-73 12 -198 55 -243 83 -141 90 -211 237
-213 452 -1 122 18 194 71 274 33 47 34 52 25 107 -14 95 6 235 36 247 28 10
145 -27 223 -72 l75 -44 65 16 c88 22 330 22 419 0 l64 -16 67 39 c76 45 165
79 209 79 23 0 33 -6 40 -25 21 -55 29 -144 18 -212 l-10 -68 36 -54 c53 -78
70 -147 69 -271 -1 -178 -46 -302 -143 -394 -77 -74 -151 -108 -291 -136 l-55
-11 30 -61 31 -62 1 -215 c2 -276 1 -275 181 -191 256 120 460 335 563 593 97
243 112 495 45 746 -143 533 -661 887 -1200 820z"/>
</g>
</svg>
