<?xml version="1.0" standalone="no"?>
<!DOCTYPE svg PUBLIC "-//W3C//DTD SVG 20010904//EN"
 "http://www.w3.org/TR/2001/REC-SVG-20010904/DTD/svg10.dtd">
<svg version="1.0" xmlns="http://www.w3.org/2000/svg"
 width="512.000000pt" height="512.000000pt" viewBox="0 0 512.000000 512.000000"
 preserveAspectRatio="xMidYMid meet">

<g transform="translate(0.000000,512.000000) scale(0.100000,-0.100000)"
fill="#000000" stroke="none">
<path d="M1233 4075 c-113 -31 -196 -98 -242 -195 -21 -46 -26 -70 -26 -145 0
-82 3 -96 33 -157 38 -77 92 -130 171 -167 51 -24 67 -26 176 -26 111 0 125 2
182 29 73 33 145 104 175 174 29 64 35 173 14 244 -56 194 -268 301 -483 243z"/>
<path d="M3195 3126 c-169 -39 -305 -130 -407 -272 l-33 -46 -3 141 -3 141
-339 0 -340 0 0 -1030 0 -1030 340 0 339 0 3 638 3 637 32 67 c42 89 101 151
182 191 60 29 73 32 161 32 87 0 102 -3 155 -30 70 -36 124 -101 157 -190 22
-59 23 -69 28 -700 l5 -640 343 -3 342 -2 0 642 c0 680 -4 760 -46 908 -79
273 -228 437 -474 521 -87 29 -107 33 -240 35 -98 3 -164 -1 -205 -10z"/>
<path d="M1000 2060 l0 -1030 345 0 345 0 0 1030 0 1030 -345 0 -345 0 0
-1030z"/>
</g>
</svg>
